<svg xmlns="http://www.w3.org/2000/svg" viewBox="0 0 64 64" role="img" aria-labelledby="title">
  <title>Icono CRM</title>
  <defs>
    <linearGradient id="crmBg" x1="0%" y1="0%" x2="100%" y2="100%">
      <stop offset="0%" stop-color="#a855f7" />
      <stop offset="100%" stop-color="#6366f1" />
    </linearGradient>
    <linearGradient id="crmBadge" x1="0%" y1="0%" x2="0%" y2="100%">
      <stop offset="0%" stop-color="#fdf4ff" />
      <stop offset="100%" stop-color="#ddd6fe" />
    </linearGradient>
  </defs>
  <rect x="6" y="6" width="52" height="52" rx="14" fill="url(#crmBg)" />
  <path d="M20 46c2.5-3.5 5-6 12-6s9.5 2.5 12 6" fill="none" stroke="#ede9fe" stroke-width="3" stroke-linecap="round" stroke-linejoin="round" />
  <circle cx="32" cy="27" r="9" fill="#f5f3ff" />
  <path d="M27 30c1.5 1.5 3.2 2.4 5 2.4s3.5-.9 5-2.4" fill="none" stroke="#7c3aed" stroke-width="2" stroke-linecap="round" />
  <circle cx="28.5" cy="25" r="1.6" fill="#7c3aed" />
  <circle cx="35.5" cy="25" r="1.6" fill="#7c3aed" />
  <circle cx="44" cy="20" r="6" fill="url(#crmBadge)" stroke="#7c3aed" stroke-width="2" />
  <path d="M42 20l2 2 4-4" fill="none" stroke="#7c3aed" stroke-width="2" stroke-linecap="round" stroke-linejoin="round" />
  <path d="M18 24l-4 4" stroke="#ede9fe" stroke-width="2" stroke-linecap="round" />
  <path d="M18 32l-4 4" stroke="#ede9fe" stroke-width="2" stroke-linecap="round" opacity="0.7" />
</svg>
